<svg width="600" height="400" viewBox="0 0 300 200" xmlns="http://www.w3.org/2000/svg">
    <style>
        .text {
        font-family: 'Georgia', serif;
        font-size: 32px;
        fill: #7b1c1c;
        }
        .hat {
        fill: #7b1c1c;
        }
        .stars {
        fill: #fbc02d;
        }
    </style>

    <!-- Sombrero -->
    <path class="hat" d="M120 60 Q110 10 160 30 Q210 50 190 80 Q140 70 120 60 Z" />
    <path class="hat" d="M110 80 Q150 90 190 80 Q180 95 110 90 Q105 85 110 80 Z" />

    <!-- Estrellas -->
    <polygon class="stars" points="140,40 143,48 150,48 145,52 147,60 140,55 133,60 135,52 130,48 137,48" />
    <polygon class="stars" points="160,50 162,55 168,55 163,58 165,64 160,60 155,64 157,58 152,55 158,55" />
    <polygon class="stars" points="175,35 177,40 182,40 178,43 180,48 175,45 170,48 172,43 168,40 173,40" />

    <!-- Texto -->
    <text x="50%" y="150" text-anchor="middle" class="text">magicworld</text>
</svg>
